<?xml version="1.0" standalone="no"?>
<!DOCTYPE svg PUBLIC "-//W3C//DTD SVG 20010904//EN"
 "http://www.w3.org/TR/2001/REC-SVG-20010904/DTD/svg10.dtd">
<svg version="1.0" xmlns="http://www.w3.org/2000/svg"
 width="1181.000000pt" height="1181.000000pt" viewBox="0 0 1181.000000 1181.000000"
 preserveAspectRatio="xMidYMid meet">

<g transform="translate(0.000000,1181.000000) scale(0.100000,-0.100000)"
fill="#000000" stroke="none">
<path d="M5875 10766 c-16 -7 -48 -21 -70 -30 -43 -19 -743 -363 -810 -398
-22 -11 -67 -34 -100 -50 -71 -35 -127 -63 -164 -82 -39 -22 -286 -140 -365
-175 -90 -40 -154 -94 -178 -148 -15 -35 -39 -57 -139 -128 l-120 -85 -737 0
c-771 0 -783 -1 -933 -45 -135 -39 -286 -154 -377 -286 -53 -78 -97 -202 -112
-315 -5 -39 -10 -563 -10 -1190 l-2 -1119 22 -62 21 -63 -3 -1797 c-3 -1845
-3 -1835 32 -1928 66 -174 139 -268 285 -367 39 -26 248 -137 465 -246 217
-109 469 -237 560 -284 91 -47 278 -143 415 -213 138 -70 311 -159 385 -198
74 -38 203 -103 285 -144 83 -40 159 -79 170 -85 39 -23 433 -225 1065 -547
107 -54 235 -119 284 -145 85 -43 175 -76 210 -76 9 0 38 10 64 21 60 27 795
392 842 418 19 11 71 37 115 59 44 21 220 110 390 197 171 87 450 229 620 316
681 346 763 388 840 429 44 24 184 96 310 160 419 214 539 278 630 338 80 53
176 145 224 215 40 59 106 199 116 247 4 19 11 53 16 75 5 22 9 808 9 1747 0
1810 -2 1727 47 1794 12 16 34 56 48 87 l25 58 0 1123 c0 972 -2 1135 -15
1205 -57 300 -299 537 -616 603 -36 8 -322 13 -874 17 l-820 6 -70 50 c-39 27
-76 55 -83 62 -7 7 -17 13 -21 13 -4 0 -30 35 -57 77 -39 62 -62 85 -114 118
-36 23 -80 48 -99 56 -19 8 -203 99 -410 203 -207 104 -407 204 -446 223 -38
19 -192 95 -340 169 -253 125 -274 134 -325 133 -30 -1 -68 -7 -85 -13z m583
-330 c257 -129 485 -243 507 -254 22 -12 138 -69 258 -127 119 -59 217 -111
217 -116 0 -5 -19 -26 -42 -47 -58 -52 -98 -118 -98 -162 0 -105 47 -158 175
-196 18 -6 31 -18 33 -29 11 -55 61 -62 83 -13 8 18 25 39 39 46 20 10 222 12
990 9 902 -2 969 -4 1030 -21 203 -58 350 -177 429 -348 62 -137 59 -78 63
-1298 l3 -1115 -29 -46 c-24 -39 -44 -54 -130 -98 -56 -29 -119 -65 -141 -80
l-40 -27 -3 -939 c-1 -517 -6 -943 -10 -947 -5 -5 -32 3 -60 17 -43 21 -74 27
-192 36 -123 9 -147 8 -190 -6 -70 -23 -142 -83 -180 -150 -42 -74 -55 -121
-86 -330 -9 -60 -19 -130 -24 -155 -4 -25 -13 -81 -20 -125 -7 -44 -17 -93
-24 -110 -10 -27 -12 -23 -18 55 -3 47 -6 131 -7 187 -1 109 -13 206 -38 313
-31 131 -55 189 -116 282 -24 36 -41 71 -37 77 8 14 82 35 200 56 103 18 257
62 266 76 3 5 12 9 21 9 14 0 100 41 218 104 100 54 130 103 128 211 -1 103
-43 215 -126 335 -24 36 -51 79 -59 95 -20 39 -38 145 -38 223 0 98 -30 270
-61 347 -4 11 -10 30 -14 42 -8 30 -107 185 -152 238 -43 52 -174 150 -248
188 -60 30 -178 70 -260 89 -81 18 -428 18 -510 0 -64 -15 -193 -59 -211 -74
-15 -11 -34 12 -44 54 -20 78 -56 159 -108 238 -132 202 -338 333 -567 361
-216 27 -417 -19 -603 -138 -210 -133 -351 -380 -377 -658 -15 -165 47 -384
151 -535 96 -138 224 -245 378 -315 59 -27 235 -76 311 -87 18 -3 50 -76 92
-213 8 -26 84 -134 114 -162 33 -30 69 -37 94 -19 18 13 20 30 26 193 3 98 9
187 13 198 7 20 86 75 106 75 5 0 28 -25 51 -55 40 -53 41 -57 31 -93 -7 -20
-19 -68 -28 -107 -9 -38 -20 -77 -25 -85 -4 -8 -20 -51 -36 -95 -24 -69 -28
-95 -28 -195 0 -106 2 -119 28 -170 54 -107 114 -130 341 -129 91 0 153 -4
160 -11 7 -7 3 -10 -13 -10 -12 0 -83 -20 -158 -45 -74 -25 -139 -45 -143 -45
-4 0 -34 19 -67 43 -32 24 -107 78 -168 120 -165 116 -151 96 -159 221 -5 76
-13 117 -25 137 -10 16 -61 74 -114 129 -82 86 -100 100 -128 100 -47 0 -69
-24 -69 -76 l0 -43 -42 -3 c-38 -3 -43 -6 -44 -28 -1 -14 -9 -40 -18 -59 -15
-28 -16 -38 -5 -63 10 -26 9 -33 -10 -58 -26 -37 -27 -78 -1 -133 28 -59 79
-106 137 -126 69 -24 75 -29 131 -108 149 -210 397 -478 485 -526 35 -18 58
-22 134 -22 l91 0 27 -60 c14 -33 33 -72 41 -87 8 -15 10 -29 5 -32 -5 -3 -49
-20 -97 -37 -49 -17 -119 -42 -156 -55 -37 -13 -92 -35 -123 -49 -31 -14 -60
-25 -65 -25 -6 0 -61 25 -122 55 -62 30 -120 55 -129 55 -39 0 -132 -56 -200
-119 -29 -27 -60 -112 -57 -155 2 -38 1 -41 -31 -47 -59 -12 -40 -46 -193 341
-55 140 -110 275 -121 300 -11 25 -34 86 -52 135 -53 148 -117 297 -144 340
-34 51 -63 57 -259 53 l-154 -3 -39 -45 c-45 -51 -46 -55 -20 -113 10 -23 49
-123 86 -222 102 -270 135 -358 145 -380 5 -11 20 -53 34 -93 14 -39 37 -102
50 -140 48 -132 76 -219 76 -236 0 -17 -24 -17 -402 -15 -222 2 -428 5 -459 7
l-57 4 34 76 c18 43 67 165 109 272 42 107 82 209 90 225 7 17 23 57 35 90 25
69 35 95 78 195 11 25 37 95 58 157 36 106 37 113 21 131 -9 10 -17 23 -17 29
0 5 -12 20 -26 34 -25 24 -28 24 -214 24 -208 0 -215 -2 -244 -69 -8 -17 -23
-53 -35 -79 -12 -27 -35 -83 -52 -125 -16 -42 -38 -95 -48 -117 -10 -22 -35
-83 -56 -135 -20 -52 -49 -120 -62 -150 -14 -30 -40 -93 -58 -140 -18 -47 -44
-110 -58 -141 -14 -30 -36 -82 -48 -115 -33 -91 -38 -94 -138 -94 -85 0 -130
11 -97 23 8 3 22 20 31 38 30 57 -1 139 -51 139 -12 0 -31 10 -41 23 -27 34
-84 73 -126 87 -34 10 -47 9 -120 -15 -45 -15 -86 -31 -92 -35 -27 -20 -83
-17 -165 10 -47 15 -97 30 -112 34 -16 3 -28 13 -28 21 0 16 21 20 34 8 14
-15 176 -55 219 -54 82 0 271 142 371 280 12 16 48 64 80 107 33 44 83 111
111 149 40 54 65 77 109 100 105 55 167 176 130 256 -15 34 -15 40 -1 69 15
29 15 32 -4 51 -10 10 -23 19 -27 19 -5 0 -16 18 -26 40 -25 58 -66 84 -123
77 -42 -4 -46 -3 -62 24 -13 24 -23 29 -53 29 -45 0 -67 -26 -72 -86 -1 -21
-22 -74 -44 -117 -38 -71 -42 -86 -42 -150 l0 -71 -47 -44 c-53 -49 -162 -134
-259 -201 -47 -32 -67 -41 -76 -33 -7 6 -57 33 -111 61 -136 71 -181 97 -262
156 -75 55 -157 106 -190 119 l-20 8 20 8 c11 4 90 8 175 9 364 3 480 56 480
220 0 73 -8 98 -80 246 -79 161 -92 247 -48 306 35 47 76 136 93 200 44 164
-15 406 -142 590 -32 47 -145 152 -169 157 -22 5 -16 25 16 56 62 58 79 159
38 235 -31 58 -108 100 -108 60 0 -6 -12 -36 -27 -67 -28 -60 -62 -102 -105
-133 -27 -20 -27 -20 -115 10 -115 39 -193 51 -328 51 -129 0 -209 -12 -310
-45 -169 -55 -302 -132 -417 -243 l-66 -63 -94 49 c-152 81 -220 118 -278 151
-30 18 -74 41 -96 52 -65 30 -140 103 -169 164 l-25 55 2 1142 c4 1281 -2
1179 78 1345 66 134 181 227 353 286 61 21 77 22 962 24 495 1 923 0 950 -3
48 -5 52 -7 70 -47 16 -32 26 -42 44 -42 19 0 27 8 36 34 9 29 20 37 80 60 79
30 175 110 175 145 -2 74 -50 172 -111 224 -22 19 -37 37 -34 42 3 4 168 89
367 187 1121 555 1045 520 1111 522 18 1 194 -82 495 -233z m-1995 -568 c51
-36 75 -110 53 -162 -19 -47 -51 -66 -110 -66 -42 0 -53 4 -80 34 -43 45 -62
108 -45 150 17 40 33 56 67 66 35 11 80 2 115 -22z m3116 -13 c27 -31 31 -43
31 -95 0 -52 -3 -62 -31 -89 -36 -37 -65 -45 -122 -38 -30 4 -48 14 -64 34
-63 78 12 223 113 223 35 0 47 -6 73 -35z m-3343 -166 c9 -16 -15 -29 -54 -29
-55 0 -25 34 35 39 6 1 15 -4 19 -10z m3504 -9 c0 -5 -9 -10 -20 -10 -11 0
-20 5 -20 10 0 6 9 10 20 10 11 0 20 -4 20 -10z m-461 -2441 c58 -12 194 -67
250 -102 105 -64 214 -191 271 -312 26 -57 60 -173 60 -208 0 -9 -28 -37 -62
-63 -35 -26 -82 -66 -106 -88 -56 -53 -154 -189 -175 -244 -63 -159 -75 -326
-33 -444 26 -74 26 -74 -37 -103 -21 -10 -45 -27 -52 -39 -22 -34 -35 -131
-35 -258 0 -144 -9 -149 -72 -45 -55 87 -55 90 -88 202 -28 100 -43 114 -115
115 -50 0 -164 24 -224 47 -197 74 -378 242 -470 434 -77 163 -90 409 -31 588
40 120 145 267 260 364 57 48 248 141 320 156 104 21 227 21 339 0z m-3299
-601 c0 -58 -26 -105 -82 -146 -26 -20 -48 -43 -48 -52 0 -8 23 -28 51 -45 63
-37 173 -152 217 -228 98 -165 127 -394 68 -542 -16 -40 -16 -39 -11 66 5 124
-5 203 -35 250 l-21 34 7 -113 c6 -99 5 -112 -9 -106 -9 3 -23 28 -33 54 -10
27 -27 60 -38 72 -12 13 -38 42 -58 66 -29 32 -38 38 -38 23 0 -11 3 -21 8
-23 7 -3 72 -122 72 -132 0 -2 -28 6 -62 19 -61 22 -90 31 -191 54 -92 21
-119 7 -44 -23 96 -40 112 -49 124 -66 7 -9 31 -20 53 -24 62 -10 40 -30 -26
-23 -55 6 -168 41 -194 61 -8 6 -31 20 -50 31 -57 31 -201 136 -248 180 -51
47 -66 50 -70 13 -4 -32 -107 -155 -187 -224 -128 -109 -114 -87 -121 -199 -7
-135 11 -474 31 -558 8 -37 27 -93 40 -124 25 -55 90 -155 107 -161 4 -2 8
-10 8 -18 0 -29 -144 4 -199 46 -68 52 -148 263 -165 433 -14 136 -18 497 -7
620 12 130 10 157 -13 138 -28 -23 -56 -215 -56 -379 l0 -120 -37 -19 c-21
-11 -51 -39 -68 -62 -72 -102 -14 -268 112 -320 25 -10 35 -23 48 -64 17 -56
29 -86 51 -130 15 -31 18 -57 7 -57 -4 0 -17 10 -30 22 -30 28 -48 14 -33 -27
14 -37 8 -41 -41 -25 -26 9 -57 32 -85 63 -34 38 -45 45 -50 33 -3 -8 4 -31
16 -51 l22 -35 -35 0 c-28 0 -42 9 -81 50 -25 27 -46 55 -46 62 0 7 -10 24
-21 38 l-20 25 4 -48 c3 -28 15 -63 31 -87 14 -22 26 -41 26 -43 0 -2 -24 -2
-52 1 -63 6 -99 29 -136 86 -22 33 -27 53 -27 106 0 36 5 79 12 95 48 125 83
341 83 515 0 97 31 264 70 382 53 157 169 305 305 390 193 120 356 168 572
168 155 0 226 -14 386 -76 l47 -18 23 24 c45 51 85 106 112 158 22 42 30 50
41 41 8 -6 14 -29 14 -51z m4417 36 c-3 -3 -12 -4 -19 -1 -8 3 -5 6 6 6 11 1
17 -2 13 -5z m210 -30 c-3 -3 -12 -4 -19 -1 -8 3 -5 6 6 6 11 1 17 -2 13 -5z
m140 -20 c-3 -3 -12 -4 -19 -1 -8 3 -5 6 6 6 11 1 17 -2 13 -5z m-50 -20 c-3
-3 -12 -4 -19 -1 -8 3 -5 6 6 6 11 1 17 -2 13 -5z m1322 -901 c0 -637 -3 -867
-12 -893 -12 -34 -14 -35 -70 -38 -55 -3 -58 -2 -52 17 3 11 2 29 -4 39 -11
21 -22 1412 -12 1560 l6 92 65 39 c36 22 68 40 73 40 4 1 7 -385 6 -856z
m-7906 718 c274 -140 351 -182 370 -200 16 -16 15 -21 -21 -96 -75 -155 -95
-253 -112 -555 -10 -179 -15 -207 -52 -340 -81 -290 -45 -416 135 -471 34 -10
85 -19 112 -19 75 0 379 -31 388 -40 5 -4 -7 -28 -25 -52 -34 -45 -65 -114
-87 -195 -12 -43 -31 -59 -31 -25 0 9 -14 45 -30 79 -33 68 -104 144 -162 174
-42 21 -114 25 -168 8 -19 -6 -80 -12 -135 -13 -81 -2 -108 -6 -142 -24 -85
-44 -124 -101 -137 -198 -4 -27 -2 -232 4 -454 6 -223 12 -535 14 -695 3 -234
7 -299 20 -335 61 -172 161 -277 354 -374 40 -20 75 -43 78 -51 7 -18 -23 -58
-58 -79 -30 -18 -63 -14 -114 14 -292 164 -374 262 -421 504 -13 70 -14 158
-9 651 3 314 11 741 16 950 5 209 9 718 10 1130 0 413 3 760 6 773 4 12 10 22
15 22 5 0 87 -40 182 -89z m5737 53 c0 -3 -24 -31 -53 -62 -88 -93 -145 -169
-168 -222 -12 -28 -25 -50 -30 -50 -5 0 -9 -11 -9 -25 0 -14 -4 -25 -8 -25 -4
0 -16 -40 -26 -90 -10 -49 -22 -90 -27 -90 -19 0 -22 76 -5 144 34 146 135
301 254 391 41 32 72 44 72 29z m1230 -24 c0 -5 -2 -10 -4 -10 -3 0 -8 5 -11
10 -3 6 -1 10 4 10 6 0 11 -4 11 -10z m130 -180 c13 0 63 -107 65 -141 l3 -29
-26 21 -27 20 -8 -25 c-8 -23 -14 -26 -53 -26 -25 0 -56 7 -69 16 -15 10 -25
12 -25 5 0 -20 -47 -12 -74 14 l-26 24 0 -34 c0 -41 -22 -65 -59 -65 -36 0
-49 16 -53 63 -3 46 21 66 80 67 32 0 42 4 42 17 0 44 65 69 99 39 22 -19 79
-9 86 15 4 10 11 19 16 19 5 0 10 10 10 23 l2 22 4 -22 c2 -13 8 -23 13 -23z
m-1158 -328 c24 -48 86 -115 133 -143 36 -23 86 -24 125 -4 l29 15 -19 43
c-21 46 -28 201 -10 212 6 3 10 0 10 -8 0 -19 28 -81 58 -129 39 -63 247 -198
305 -198 13 0 36 -9 51 -21 l26 -20 0 -202 c0 -193 -12 -310 -39 -396 -19 -61
-41 -75 -161 -102 -19 -4 -71 -17 -115 -29 -64 -18 -109 -22 -220 -23 -127 -1
-148 2 -227 27 -110 35 -183 79 -225 134 -52 68 -63 123 -63 309 0 181 3 188
59 159 16 -9 42 -16 56 -16 22 0 24 -3 15 -19 -31 -60 6 -128 67 -122 35 3 56
121 32 175 -18 38 -109 77 -134 56 -7 -6 -31 -10 -52 -8 -47 4 -63 31 -63 106
l0 54 30 -29 c33 -31 91 -65 99 -58 6 6 -24 33 -61 58 -28 17 -28 18 -28 127
0 102 11 146 27 103 31 -85 210 -225 248 -193 10 9 9 20 -6 60 -14 37 -19 76
-19 148 0 54 3 102 7 106 4 4 15 -24 25 -61 10 -37 28 -87 40 -111z m-247 99
c3 -5 1 -12 -5 -16 -5 -3 -10 1 -10 9 0 18 6 21 15 7z m432 -43 c-3 -7 -5 -2
-5 12 0 14 2 19 5 13 2 -7 2 -19 0 -25z m196 -5 c-5 -12 -2 -15 10 -10 12 5
17 1 17 -14 0 -11 7 -22 15 -25 8 -4 15 -12 15 -20 0 -8 4 -14 9 -14 5 0 11
-7 15 -15 8 -23 -10 -18 -38 10 -14 14 -30 25 -36 25 -5 0 -10 11 -10 24 0 13
-6 27 -12 29 -10 4 -9 8 2 16 20 14 20 14 13 -6z m-4923 -133 c92 -70 210
-126 308 -145 76 -16 85 -16 101 -1 37 34 150 -5 151 -52 1 -16 2 -16 14 1 20
26 28 21 23 -15 -2 -19 -13 -39 -29 -51 -24 -18 -27 -18 -56 -3 -43 22 -155
21 -193 -1 -41 -24 -51 -57 -39 -123 11 -61 47 -103 84 -98 27 4 58 66 64 130
4 38 8 48 23 48 10 0 21 -5 24 -11 4 -5 25 -9 48 -7 52 4 55 -4 56 -189 1
-121 -2 -151 -20 -197 -41 -110 -153 -198 -309 -241 -135 -38 -401 -19 -564
40 -38 14 -70 25 -72 25 -1 0 -13 30 -25 68 -21 61 -23 92 -29 347 -3 154 -3
287 2 296 4 9 38 41 75 71 38 30 95 88 128 129 85 107 81 105 129 63 23 -19
70 -57 106 -84z m4615 111 c3 -5 1 -12 -5 -16 -5 -3 -10 1 -10 9 0 18 6 21 15
7z m126 -105 c5 -6 9 -14 9 -18 0 -11 -53 17 -69 36 -12 14 -10 16 8 16 14 0
21 6 21 18 0 37 15 33 18 -5 2 -21 8 -42 13 -47z m-671 -8 c0 -22 5 -42 34
-133 21 -65 20 -73 -4 -42 -11 14 -20 30 -20 36 0 6 -4 11 -8 11 -10 0 -32 82
-32 120 0 20 5 30 15 30 9 0 15 -9 15 -22z m1505 -327 c3 -5 1 -12 -5 -16 -5
-3 -10 1 -10 9 0 18 6 21 15 7z m49 -102 c20 -16 26 -29 26 -60 0 -39 -20 -92
-44 -114 -22 -21 -68 -46 -73 -41 -10 10 -5 68 6 79 14 14 14 54 1 62 -16 10
-12 57 7 77 21 24 44 23 77 -3z m-6366 -21 c18 -18 14 -57 -9 -86 -19 -24 -19
-27 -3 -32 12 -5 21 -25 29 -63 13 -64 7 -82 -24 -72 -50 16 -99 123 -87 190
12 60 62 95 94 63z m4390 -199 c49 -53 94 -105 100 -115 6 -11 13 -51 17 -89
7 -76 -4 -125 -29 -125 -32 0 -3 -27 67 -63 39 -21 133 -84 207 -140 130 -98
135 -103 132 -135 l-3 -33 44 6 c51 8 46 14 72 -90 8 -33 27 -97 41 -142 15
-44 24 -88 21 -97 -9 -22 -126 -22 -173 0 -38 18 -143 120 -259 250 -132 149
-167 193 -225 277 -53 78 -57 81 -113 96 -55 15 -107 51 -107 73 0 11 62 6 95
-7 18 -7 18 -6 -2 14 -12 11 -27 21 -33 21 -23 0 -110 51 -110 65 0 17 55 21
65 5 10 -16 74 -42 90 -36 8 3 15 14 15 24 0 17 42 107 58 124 18 19 35 -14
41 -78 4 -42 13 -79 24 -94 18 -25 18 -24 12 55 -9 113 -13 130 -40 155 -31
29 -69 21 -90 -20 -16 -31 -33 -32 -67 -2 -25 21 -23 38 13 93 17 27 30 58 29
71 -5 55 -2 54 108 -63z m-2998 -42 c0 -7 15 -41 33 -77 42 -81 60 -165 46
-214 -12 -44 -39 -49 -39 -6 0 40 -21 85 -32 68 -4 -7 -8 -26 -8 -41 0 -45
-27 -91 -64 -111 -48 -26 -71 -19 -72 22 -1 42 -17 60 -39 42 -8 -7 -15 -21
-15 -31 0 -9 -7 -25 -16 -34 -16 -15 -19 -15 -41 9 -13 14 -26 26 -28 26 -2 0
-15 -11 -29 -25 -22 -22 -33 -25 -99 -25 -61 0 -77 3 -92 20 -17 19 -17 20 1
20 18 0 88 21 129 39 11 5 36 16 57 25 20 9 39 16 43 16 11 0 96 61 138 99 38
34 87 116 87 146 0 21 22 55 32 49 4 -3 8 -11 8 -17z m3430 -138 c0 -26 9 -75
20 -109 11 -34 20 -68 20 -74 -1 -18 -40 37 -40 56 0 9 -4 20 -10 23 -5 3 -10
45 -10 93 0 60 3 82 10 72 5 -8 10 -36 10 -61z m-577 30 c37 -30 50 -69 23
-69 -26 0 -106 39 -112 55 -20 50 34 59 89 14z m1744 -101 c-3 -7 -5 -2 -5 12
0 14 2 19 5 13 2 -7 2 -19 0 -25z m613 22 c0 -5 -7 -10 -16 -10 -8 0 -12 5 -9
10 3 6 10 10 16 10 5 0 9 -4 9 -10z m-4585 -40 c21 -41 19 -65 -12 -122 -27
-50 -27 -50 -10 -98 9 -26 17 -57 17 -68 0 -26 15 -36 29 -19 6 8 29 20 52 27
23 8 43 20 46 27 3 7 14 13 26 13 19 0 19 1 2 20 -18 19 -18 19 -47 -5 -32
-27 -78 -34 -78 -11 0 8 -3 21 -6 30 -4 11 8 24 40 44 46 30 132 59 142 49 9
-8 -25 -67 -39 -67 -6 -1 5 -16 27 -34 29 -25 37 -38 32 -53 -6 -19 -101 -73
-128 -73 -8 0 -19 -5 -26 -12 -14 -14 -16 -42 -3 -33 6 3 39 16 75 30 80 30
80 14 -2 -41 -93 -64 -120 -92 -231 -239 -172 -229 -302 -354 -407 -391 l-51
-18 -99 33 c-55 19 -105 39 -113 46 -11 11 -2 36 53 149 36 75 71 136 76 136
6 0 18 -5 28 -11 14 -9 26 -8 53 5 47 22 259 187 344 268 l70 66 5 89 c5 81 9
93 43 143 24 35 39 71 43 102 8 56 26 63 49 18z m2925 10 c0 -5 -4 -10 -10
-10 -5 0 -10 5 -10 10 0 6 5 10 10 10 6 0 10 -4 10 -10z m-2771 -34 c29 -31
20 -46 -29 -46 -47 0 -68 25 -43 52 22 25 45 22 72 -6z m3701 4 c0 -13 -11
-13 -30 0 -12 8 -11 10 8 10 12 0 22 -4 22 -10z m-890 -30 c22 -22 24 -29 11
-49 -8 -12 -12 -11 -27 3 -14 15 -15 19 -3 27 11 7 10 11 -6 23 -11 9 -14 16
-7 16 6 0 21 -9 32 -20z m800 11 c0 -6 -4 -13 -10 -16 -5 -3 -10 1 -10 9 0 9
5 16 10 16 6 0 10 -4 10 -9z m-5150 -61 c56 0 61 -8 58 -90 -2 -53 1 -74 10
-78 13 -4 52 -73 52 -91 0 -19 -32 -41 -60 -41 -35 0 -192 78 -239 119 l-35
30 60 3 c34 2 59 8 59 14 0 6 -20 35 -45 64 -50 59 -81 106 -74 112 2 3 44 -6
92 -19 48 -12 103 -23 122 -23z m5198 13 c-10 -2 -26 -2 -35 0 -10 3 -2 5 17
5 19 0 27 -2 18 -5z m-35 -90 c4 -3 -23 -28 -60 -55 -37 -27 -91 -69 -119 -94
-29 -24 -57 -44 -63 -44 -5 0 -26 15 -45 33 l-35 32 47 52 47 52 95 14 c117
18 125 19 133 10z m81 -72 c3 -4 -22 -26 -57 -47 -82 -50 -203 -167 -289 -281
-111 -147 -167 -166 -65 -22 81 117 146 190 223 253 99 83 174 121 188 97z
m-464 -22 c0 -7 -9 -27 -21 -45 -23 -37 -25 -62 -34 -303 -5 -146 -6 -154 -29
-172 -28 -22 -66 -99 -66 -134 0 -28 -25 -43 -47 -29 -33 21 -116 252 -163
454 -31 132 -34 125 68 156 48 14 119 37 157 50 105 35 135 40 135 23z m-2742
-32 c-7 -14 -13 -17 -16 -9 -6 19 6 44 18 37 7 -4 6 -14 -2 -28z m947 3 c7
-14 20 -43 28 -65 12 -33 118 -301 147 -370 4 -11 14 -36 21 -55 11 -31 23
-60 59 -145 4 -11 18 -47 31 -80 12 -33 34 -87 49 -120 15 -33 40 -96 55 -140
16 -44 32 -81 37 -83 16 -7 8 -33 -9 -30 -12 2 -25 25 -39 63 -32 93 -34 98
-50 128 -7 16 -14 36 -14 46 0 9 -4 21 -9 26 -4 6 -16 33 -26 60 -9 28 -29 75
-43 105 -25 56 -30 67 -52 130 -12 31 -24 62 -50 125 -5 11 -20 45 -33 75 -13
30 -27 66 -31 80 -4 14 -11 34 -16 45 -26 62 -42 102 -50 120 -33 80 -42 95
-60 95 -10 0 -22 5 -25 11 -5 7 6 9 30 7 27 -2 40 -10 50 -28z m2385 -37 c28
-31 82 -135 104 -197 24 -68 38 -190 46 -401 5 -132 12 -276 16 -320 8 -96 68
-289 119 -383 20 -35 34 -71 31 -78 -11 -28 -182 -95 -306 -120 -95 -19 -339
-16 -440 6 -139 30 -230 56 -230 67 0 3 9 16 20 30 16 21 20 41 20 107 0 44 4
87 9 95 5 7 3 32 -5 59 -8 25 -14 48 -14 52 0 4 19 15 43 25 72 30 150 68 189
92 21 13 40 23 42 23 2 0 23 -16 46 -35 23 -19 51 -35 62 -35 67 0 298 341
298 440 0 34 -16 48 -24 22 -4 -10 -22 -45 -42 -78 -20 -32 -50 -84 -66 -114
-44 -79 -140 -200 -157 -197 -8 1 -26 29 -39 62 -13 33 -43 87 -67 120 -58 81
-166 181 -205 190 -35 8 -38 -1 39 99 29 37 41 61 37 73 -6 13 -27 -3 -107
-83 -72 -71 -99 -92 -94 -74 11 40 30 65 102 132 98 91 147 141 249 254 95
104 227 204 269 204 14 0 36 -14 55 -37z m-6230 17 c64 -18 136 -98 165 -185
25 -77 43 -185 59 -365 22 -247 29 -412 18 -440 -9 -24 -10 -23 -16 15 -4 22
-11 64 -17 93 -12 62 -26 150 -39 242 -35 264 -78 421 -125 460 -27 22 -29 1
-6 -45 36 -73 67 -215 122 -570 6 -38 15 -89 20 -112 5 -23 9 -53 9 -66 0 -13
9 -53 21 -88 26 -82 19 -137 -23 -184 -31 -36 -56 -45 -62 -22 -6 17 -24 135
-41 262 -19 139 -30 211 -56 355 -11 63 -24 144 -29 180 -30 215 -59 352 -89
407 -24 43 -28 59 -19 65 18 11 66 10 108 -2z m2867 -32 c-3 -7 -5 -2 -5 12 0
14 2 19 5 13 2 -7 2 -19 0 -25z m900 24 c7 -4 24 -35 38 -67 15 -33 33 -73 40
-90 24 -52 65 -158 65 -166 0 -5 12 -34 26 -66 39 -86 49 -111 74 -183 13 -36
35 -92 50 -125 15 -33 36 -85 48 -115 64 -171 82 -223 82 -236 0 -11 -20 -14
-99 -14 -54 0 -125 -3 -157 -6 l-59 -6 -13 33 c-8 19 -35 95 -62 169 -26 74
-60 167 -75 205 -15 39 -33 90 -42 115 -8 25 -25 69 -39 98 -13 29 -24 56 -24
60 0 10 -76 204 -89 229 -15 27 -51 132 -51 148 0 11 18 15 73 18 148 7 202 6
214 -1z m-524 -43 c-1 -20 -15 -65 -31 -100 -16 -35 -66 -158 -112 -274 -45
-115 -87 -221 -92 -235 -18 -42 -35 -84 -47 -110 -5 -14 -26 -68 -45 -120 -41
-113 -75 -190 -82 -190 -3 0 -13 4 -22 9 -10 5 -80 12 -156 15 -76 2 -140 7
-142 9 -7 6 23 85 74 197 16 36 39 92 52 125 12 33 30 78 40 100 10 22 32 76
50 120 32 80 41 101 78 185 11 25 30 70 42 100 66 163 81 191 105 201 11 4 81
7 155 6 l135 -2 -2 -36z m-3428 25 c45 -18 72 -127 121 -489 28 -213 36 -269
59 -405 17 -103 29 -201 45 -350 14 -126 16 -124 -148 -128 l-127 -3 -47 31
c-88 58 -100 91 -123 340 -8 91 -20 215 -26 275 -6 61 -11 220 -12 355 l-2
245 27 38 c27 40 79 81 113 90 30 7 101 8 120 1z m7065 -13 c0 -11 -4 -23 -10
-26 -5 -3 -10 -13 -10 -21 0 -18 -36 -54 -53 -54 -23 0 -77 -81 -77 -114 0 -9
-4 -16 -10 -16 -5 0 -10 -11 -10 -25 0 -31 -16 -33 -24 -2 -12 44 -6 83 21
137 29 58 51 81 111 117 47 27 62 28 62 4z m206 -3 c5 -3 21 -8 37 -12 15 -3
27 -11 27 -16 0 -6 5 -10 11 -10 15 0 38 -30 39 -50 0 -8 7 -28 15 -44 18 -34
22 -343 5 -423 -5 -26 -15 -129 -21 -228 -22 -345 -24 -369 -48 -435 -12 -36
-29 -69 -37 -73 -8 -4 -14 -13 -14 -18 0 -16 -42 -48 -62 -49 -10 0 -18 -5
-18 -11 0 -24 -260 7 -286 34 -12 12 -10 32 16 177 5 30 19 109 30 175 11 66
25 140 30 165 12 55 31 202 36 290 3 36 9 74 14 85 8 19 20 78 41 200 11 68
25 132 41 183 10 35 18 44 40 49 16 3 30 8 32 12 5 7 59 7 72 -1z m-1364 -26
c17 -14 16 -17 -11 -47 -15 -18 -34 -47 -42 -64 -8 -17 -17 -31 -21 -31 -13 0
-10 27 17 147 6 24 25 22 57 -5z m-4522 -21 c0 -5 8 -12 18 -15 32 -13 62 -31
62 -38 0 -5 5 -8 11 -8 6 0 32 -14 57 -32 91 -62 101 -68 107 -68 14 0 115
-54 115 -62 0 -11 -44 -10 -55 1 -6 5 -46 28 -91 50 -45 23 -99 57 -120 76
-21 19 -43 35 -49 35 -15 1 -81 70 -67 70 7 0 12 -4 12 -9z m1600 -122 c0 -11
-4 -18 -10 -14 -5 3 -7 12 -3 20 7 21 13 19 13 -6z m-33 -71 c-3 -7 -5 -2 -5
12 0 14 2 19 5 13 2 -7 2 -19 0 -25z m3912 -105 c-8 -39 -16 -50 -26 -39 -4 4
-3 15 3 24 6 9 8 28 4 42 -3 14 -4 34 -1 45 9 37 29 -33 20 -72z m-3982 -65
c-3 -8 -6 -5 -6 6 -1 11 2 17 5 13 3 -3 4 -12 1 -19z m3944 -60 c-9 -20 -10
-18 -10 17 0 31 2 36 9 23 6 -10 7 -25 1 -40z m-3961 15 c0 -5 -5 -15 -10 -23
-8 -12 -10 -11 -10 8 0 12 5 22 10 22 6 0 10 -3 10 -7z m-1660 -128 c0 -7 -70
-35 -89 -35 -25 0 40 38 67 39 12 1 22 -1 22 -4z m4702 -48 c44 -34 123 -126
149 -173 13 -26 12 -28 -33 -69 -53 -48 -109 -77 -218 -111 -150 -48 -204 -55
-476 -61 l-262 -6 -35 37 c-19 20 -41 36 -49 36 -10 0 -10 -2 1 -9 17 -11 6
-31 -17 -31 -27 0 -53 37 -46 64 4 16 1 25 -10 29 -20 8 -38 -25 -34 -61 2
-21 -2 -28 -25 -36 -22 -8 -30 -7 -37 4 -6 8 -8 20 -5 27 10 27 -15 22 -30 -7
-15 -29 -45 -42 -45 -19 0 6 -8 8 -19 4 -22 -7 -41 19 -41 55 0 73 113 190
184 190 16 0 52 -13 80 -29 28 -15 80 -39 114 -51 73 -27 52 -30 262 50 69 27
197 72 285 100 88 28 180 62 205 74 25 13 48 24 52 25 3 0 26 -14 50 -32z
m-4457 -74 c66 -22 161 -53 210 -68 50 -16 97 -32 105 -36 8 -5 41 -17 72 -28
l57 -20 98 45 c130 62 159 62 218 4 43 -42 57 -70 35 -70 -11 0 6 -46 27 -71
17 -20 17 -44 -1 -59 -12 -9 -19 -3 -40 39 -34 66 -83 121 -108 121 -18 0 -17
-4 11 -35 31 -36 71 -105 71 -125 0 -26 -43 -6 -86 40 -26 28 -55 50 -65 50
-22 0 -25 -15 -5 -23 8 -3 22 -19 30 -36 21 -40 -1 -48 -45 -15 -38 28 -50 29
-88 9 -27 -13 -30 -13 -51 10 -28 30 -36 26 -44 -24 -4 -28 -12 -42 -27 -46
-27 -9 -287 3 -369 17 -181 31 -324 83 -389 143 -56 52 -55 87 6 156 74 82
177 88 378 22z m1311 -20 c-11 -11 -19 6 -11 24 8 17 8 17 12 0 3 -10 2 -21
-1 -24z m-29 -45 c-3 -8 -6 -5 -6 6 -1 11 2 17 5 13 3 -3 4 -12 1 -19z m-412
-112 c13 -19 14 -29 5 -46 -13 -24 -25 -19 -45 21 -26 49 10 71 40 25z m345
-62 c0 -14 -4 -23 -9 -20 -5 3 -7 15 -4 26 7 28 13 25 13 -6z m-25 -53 c3 -5
1 -12 -5 -16 -5 -3 -10 1 -10 9 0 18 6 21 15 7z m-718 -38 c-3 -3 -11 -2 -17
2 -9 6 -9 10 1 16 14 8 27 -7 16 -18z m3113 -42 c20 -8 -197 -18 -587 -26
-291 -7 -323 -6 -323 8 0 13 14 17 63 20 106 6 831 5 847 -2z m1717 -63 c-3
-7 -5 -2 -5 12 0 14 2 19 5 13 2 -7 2 -19 0 -25z m-1023 -24 c23 -9 23 -146 0
-168 -14 -14 -224 -16 -2159 -16 -1179 0 -2150 3 -2159 6 -13 5 -16 23 -16 88
0 46 3 86 7 89 8 9 4305 9 4327 1z m-5495 -241 c5 -10 12 -47 15 -83 18 -165
67 -314 123 -366 36 -35 115 -69 178 -79 28 -4 129 -10 226 -14 l175 -7 55
-52 c30 -29 72 -65 94 -80 46 -31 58 -44 45 -52 -13 -8 -535 7 -635 19 -141
16 -157 23 -243 109 -118 116 -145 183 -197 484 -10 53 -14 101 -11 107 4 6
24 12 44 12 20 1 51 5 67 9 47 12 54 11 64 -7z m5404 -10 l27 -5 0 -623 c0
-486 -3 -625 -12 -633 -7 -5 -78 -43 -158 -84 -80 -41 -154 -80 -165 -86 -11
-6 -51 -27 -90 -45 -133 -65 -240 -118 -260 -129 -33 -19 -257 -133 -580 -298
-327 -165 -530 -270 -682 -351 -59 -32 -103 -49 -126 -49 -36 0 -81 22 -702
340 -316 162 -757 386 -1137 578 l-308 154 0 613 c0 481 3 614 13 618 16 7
4143 7 4180 0z m1101 -139 c-1 -113 -21 -174 -77 -233 -60 -63 -188 -104 -367
-117 l-87 -7 -56 69 c-59 73 -120 125 -202 169 -27 15 -54 31 -60 35 -5 5 -44
19 -85 32 l-75 25 -3 43 c-5 68 -11 67 178 26 243 -52 349 -57 500 -26 119 24
243 57 284 75 17 7 36 12 41 11 6 -2 10 -44 9 -102z m314 79 c-10 -2 -26 -2
-35 0 -10 3 -2 5 17 5 19 0 27 -2 18 -5z m-6468 -84 c171 -28 202 -39 145 -53
-27 -7 -63 -52 -50 -64 4 -4 10 -1 12 6 3 6 8 12 13 12 4 0 24 16 43 35 l35
35 177 0 178 0 -29 -22 c-61 -46 -164 -162 -164 -185 0 -6 -6 -18 -12 -25 -7
-8 -18 -23 -24 -33 -10 -18 -23 -20 -153 -20 -97 1 -145 5 -153 13 -7 7 -18
12 -26 12 -7 0 -20 6 -28 14 -7 8 -24 23 -36 33 -38 31 -49 61 -55 148 -7 103
-2 119 35 111 15 -4 56 -11 92 -17z m6460 -39 c0 -5 -4 -10 -9 -10 -6 0 -13 5
-16 10 -3 6 1 10 9 10 9 0 16 -4 16 -10z m-5672 -32 c8 -8 12 -54 12 -140 l0
-128 -189 0 c-137 1 -192 5 -200 14 -7 8 -3 25 12 55 43 86 132 167 214 197
48 17 135 18 151 2z m5639 -125 c-3 -10 -5 -4 -5 12 0 17 2 24 5 18 2 -7 2
-21 0 -30z m-177 -113 c0 -5 -7 -10 -15 -10 -8 0 -15 5 -15 10 0 6 7 10 15 10
8 0 15 -4 15 -10z m-63 -26 c-3 -3 -12 -4 -19 -1 -8 3 -5 6 6 6 11 1 17 -2 13
-5z m50 -31 c-3 -3 -11 -2 -17 2 -9 6 -9 10 1 16 14 8 27 -7 16 -18z m75 -15
c-9 -9 -12 -7 -12 12 0 19 3 21 12 12 9 -9 9 -15 0 -24z m-154 10 c7 -7 12
-18 12 -26 0 -12 -2 -12 -17 -1 -9 8 -26 13 -37 12 -15 -1 -16 0 -3 3 9 3 17
10 17 15 0 13 14 11 28 -3z m-5438 -42 l55 -4 3 -48 c5 -73 -3 -92 -35 -89
-41 3 -93 29 -137 68 -12 10 -42 32 -68 49 -27 16 -48 32 -48 35 0 2 39 2 88
-2 48 -3 112 -7 142 -9z m5318 -21 c-2 -2 -32 -8 -68 -12 -66 -8 -97 -33 -41
-33 34 0 51 -18 30 -31 -8 -5 -26 -9 -41 -9 -15 0 -30 -4 -33 -10 -4 -6 5 -10
19 -10 14 0 26 -5 26 -10 0 -6 -20 -10 -47 -9 -27 1 -137 1 -246 0 -109 -1
-201 0 -204 2 -5 6 60 49 90 60 9 3 17 15 17 26 0 19 9 20 143 25 177 6 334
19 344 29 4 5 9 3 11 -3 2 -6 2 -13 0 -15z m162 5 c0 -5 -4 -10 -10 -10 -5 0
-10 5 -10 10 0 6 5 10 10 10 6 0 10 -4 10 -10z m-883 -6 c-8 -9 -147 -10 -147
-1 0 4 34 7 77 7 42 0 74 -3 70 -6z m86 -1 c-13 -2 -33 -2 -45 0 -13 2 -3 4
22 4 25 0 35 -2 23 -4z m734 1 c-3 -3 -12 -4 -19 -1 -8 3 -5 6 6 6 11 1 17 -2
13 -5z m-61 -31 c-4 -9 -1 -20 6 -24 7 -4 9 -12 4 -16 -5 -4 -11 -2 -13 5 -3
6 -13 12 -24 12 -17 0 -18 3 -7 20 16 25 43 27 34 3z m104 -43 c9 -17 8 -20
-10 -20 -13 0 -20 7 -20 20 0 11 4 20 10 20 5 0 14 -9 20 -20z m-155 -19 c-2
-5 -14 -11 -26 -14 -20 -5 -20 -5 -4 13 17 18 41 18 30 1z m-848 -23 c-3 -7
-5 -2 -5 12 0 14 2 19 5 13 2 -7 2 -19 0 -25z"/>
<path d="M2758 9280 c-37 -5 -92 -24 -152 -53 -76 -38 -106 -60 -162 -119 -71
-75 -130 -178 -170 -298 -33 -98 -23 -319 26 -570 21 -109 41 -224 61 -344 11
-71 29 -154 39 -185 51 -143 176 -285 305 -344 65 -30 89 -38 170 -52 73 -12
95 -12 172 0 148 24 249 73 338 164 44 46 56 49 93 22 111 -78 294 -115 428
-86 97 21 164 54 222 106 l43 40 39 -40 c55 -57 99 -73 201 -75 73 -1 92 3
133 23 26 14 60 40 76 58 l29 32 48 -39 c114 -95 283 -94 389 3 28 26 56 47
62 47 6 0 37 -15 69 -33 86 -49 147 -67 248 -74 163 -10 266 18 372 103 39 32
42 33 57 17 103 -113 110 -115 463 -111 269 3 279 4 317 26 34 20 40 21 55 8
58 -53 208 -73 302 -41 56 19 128 84 169 153 37 61 44 59 71 -19 38 -108 136
-169 271 -169 96 0 163 27 212 86 l39 47 24 -47 c17 -33 39 -56 76 -80 84 -52
114 -61 212 -61 101 1 151 19 223 81 41 34 102 141 137 239 10 28 21 55 25 60
4 6 15 36 24 68 10 31 21 57 26 57 4 0 10 -69 12 -152 6 -177 20 -233 76 -291
59 -61 119 -83 262 -96 69 -7 187 -19 263 -27 75 -9 195 -17 265 -17 l127 -2
55 36 c102 66 140 125 166 259 18 98 18 195 -2 253 -20 59 -79 126 -138 156
-25 14 -46 26 -46 28 0 2 11 19 24 36 52 68 79 178 74 294 -4 84 -12 116 -40
156 -11 15 -10 21 7 33 88 65 132 133 166 254 52 188 -1 359 -135 439 -76 45
-106 47 -439 27 -284 -18 -334 -25 -405 -59 l-42 -21 -67 34 c-58 28 -77 33
-138 32 -71 -1 -138 -25 -192 -69 -24 -20 -79 -122 -107 -198 -9 -27 -21 -59
-26 -70 -5 -11 -14 -38 -21 -60 -6 -22 -20 -61 -32 -88 -16 -38 -22 -45 -33
-36 -8 6 -14 21 -14 32 0 11 -7 45 -16 76 -8 31 -19 70 -24 86 -5 17 -12 50
-15 75 -10 59 -50 148 -82 182 -14 14 -53 39 -86 54 -129 58 -264 23 -362 -92
l-48 -55 -46 44 c-58 56 -96 76 -169 85 -122 17 -216 -24 -294 -128 -22 -30
-97 -225 -128 -335 -20 -74 -73 -246 -94 -310 -13 -38 -36 -116 -52 -172 -36
-129 -44 -141 -81 -123 -16 8 -77 16 -138 19 l-110 6 -5 420 c-6 458 -4 442
-67 530 -91 125 -316 130 -421 11 -17 -20 -36 -36 -43 -36 -6 0 -31 18 -56 40
-53 46 -125 82 -203 99 -60 14 -192 10 -254 -7 -70 -19 -161 -71 -209 -118
-26 -26 -49 -45 -50 -43 -2 2 -9 17 -17 33 -21 42 -70 89 -116 112 -29 14 -58
18 -115 18 -91 -2 -136 -22 -198 -89 l-43 -46 -48 49 c-83 84 -206 105 -316
52 -48 -23 -124 -92 -124 -111 0 -6 -19 5 -42 24 -114 91 -203 122 -358 121
-93 0 -128 -4 -182 -23 -67 -22 -171 -83 -197 -114 -21 -26 -34 -21 -102 39
-137 123 -295 169 -491 144z m214 -121 c123 -26 232 -108 284 -215 64 -131 30
-224 -87 -240 -70 -9 -111 14 -143 81 -19 41 -35 59 -65 75 -70 35 -148 21
-185 -34 -24 -38 -20 -112 20 -360 45 -282 70 -403 92 -441 28 -46 77 -75 131
-75 60 0 99 25 150 94 49 66 65 76 125 76 36 0 50 -6 75 -31 66 -65 64 -170
-3 -272 -127 -191 -459 -225 -638 -67 -91 80 -121 144 -153 335 -9 55 -26 145
-36 200 -11 55 -24 123 -29 150 -5 28 -19 104 -30 170 -36 201 -14 324 76 424
102 114 260 163 416 130z m4925 -29 c46 -28 61 -55 83 -161 11 -51 27 -121 35
-154 8 -33 23 -105 35 -160 20 -95 32 -152 65 -290 7 -33 16 -72 20 -87 10
-51 31 -29 73 76 23 58 42 107 42 110 0 9 167 460 198 536 15 35 37 77 50 92
49 59 157 57 214 -4 23 -24 28 -39 28 -79 0 -26 -4 -58 -10 -71 -5 -13 -26
-68 -46 -123 -20 -55 -42 -113 -49 -130 -17 -40 -106 -271 -140 -365 -31 -85
-91 -242 -156 -409 -68 -175 -122 -217 -252 -192 -83 15 -122 69 -151 211 -8
41 -35 154 -59 250 -24 96 -50 202 -57 235 -7 33 -18 80 -25 105 -44 150 -105
441 -105 503 0 44 4 54 39 88 34 35 44 39 87 39 31 0 61 -7 81 -20z m1729 4
c36 -24 54 -65 54 -124 0 -53 -11 -84 -39 -111 -40 -39 -64 -43 -278 -49 -168
-4 -216 -9 -227 -20 -16 -17 -31 -257 -18 -277 5 -8 61 -16 163 -22 172 -10
214 -22 250 -73 42 -58 19 -159 -44 -199 -30 -19 -41 -20 -157 -13 -69 4 -150
8 -180 8 l-55 1 -12 -95 c-16 -132 -16 -210 0 -210 6 0 66 -5 132 -11 66 -6
167 -14 225 -18 119 -8 155 -22 187 -70 46 -69 19 -164 -57 -204 -37 -19 -40
-19 -265 3 -55 5 -172 15 -260 21 -200 13 -230 21 -256 62 -19 30 -20 43 -15
177 3 80 10 219 16 310 5 91 16 282 25 425 20 338 24 378 46 414 29 48 72 59
262 71 94 6 173 13 176 15 2 3 71 5 153 5 121 0 153 -3 174 -16z m-4004 -20
c74 -19 124 -49 173 -106 103 -118 111 -244 19 -283 -76 -31 -148 -7 -180 60
-26 55 -58 75 -121 75 -49 0 -58 -4 -84 -31 -34 -36 -33 -24 -20 -449 6 -213
10 -249 26 -273 35 -54 115 -73 175 -42 15 8 45 35 65 59 49 60 85 74 138 54
59 -21 81 -56 80 -122 -2 -67 -28 -119 -87 -174 -78 -72 -122 -87 -261 -87
-113 0 -123 2 -178 29 -68 35 -150 118 -176 178 -31 72 -41 198 -43 548 -3
378 -4 371 74 456 98 107 249 148 400 108z m-1764 -8 c69 -19 130 -55 176
-106 63 -70 86 -146 106 -350 5 -52 16 -153 25 -225 42 -354 43 -431 5 -505
-48 -94 -144 -160 -265 -181 -124 -21 -269 24 -353 110 -85 86 -88 100 -143
551 -5 47 -17 130 -26 185 -9 55 -17 147 -17 205 -1 102 0 107 31 155 18 28
45 62 60 77 86 81 268 119 401 84z m1082 -3 c16 -9 35 -33 43 -52 17 -39 32
-219 47 -571 6 -118 14 -293 19 -388 10 -199 4 -247 -34 -279 -29 -25 -109
-32 -146 -12 -26 13 -95 122 -146 229 -120 252 -177 360 -186 351 -6 -6 -3
-78 7 -198 9 -103 18 -225 19 -270 2 -74 0 -84 -22 -107 -44 -47 -125 -53
-178 -15 -44 31 -44 30 -78 534 -9 121 -20 285 -25 365 -5 80 -12 183 -16 230
-6 73 -4 90 13 120 51 93 202 93 253 0 21 -39 120 -250 120 -256 0 -3 27 -61
59 -129 33 -68 62 -134 66 -145 9 -27 25 -26 25 3 0 12 -7 88 -15 169 -22 216
-24 361 -5 383 44 53 126 70 180 38z m2432 -25 c31 -22 41 -41 64 -128 9 -30
22 -77 29 -105 8 -27 22 -81 31 -120 9 -38 32 -131 51 -205 34 -131 63 -249
103 -415 11 -44 29 -109 40 -145 35 -115 23 -166 -47 -195 -77 -32 -159 -7
-187 57 -8 18 -22 69 -31 113 -23 108 -21 104 -50 115 -39 15 -250 13 -262 -2
-6 -7 -18 -45 -27 -85 -21 -90 -39 -125 -77 -158 -75 -63 -219 -4 -219 90 0
18 9 61 21 96 29 91 113 366 169 554 142 479 142 477 181 516 21 21 48 40 61
42 42 9 121 -4 150 -25z m-1153 6 c50 -35 51 -50 51 -543 0 -317 3 -462 11
-466 6 -4 86 -9 177 -12 103 -4 179 -11 199 -19 42 -17 73 -68 73 -119 0 -54
-18 -86 -60 -108 -32 -16 -60 -17 -313 -13 -302 5 -317 8 -337 62 -6 15 -10
255 -10 592 1 607 0 600 51 628 34 19 129 18 158 -2z m-3230 -668 c12 -13 42
-31 67 -41 36 -14 50 -15 80 -5 19 7 37 10 39 8 2 -1 6 -35 10 -74 l7 -72 -35
-17 c-20 -9 -53 -38 -74 -63 -57 -72 -66 -75 -81 -34 -23 62 -58 322 -43 322
4 0 18 -11 30 -24z m2831 -55 l0 -58 -64 -6 c-60 -6 -119 -29 -157 -63 -8 -8
-19 -14 -22 -14 -10 0 -8 188 2 194 5 3 30 -2 55 -10 51 -17 97 -15 143 9 16
7 31 12 36 10 4 -2 7 -30 7 -62z"/>
<path d="M3673 8826 c-26 -23 -28 -29 -27 -98 0 -40 6 -120 12 -178 7 -58 19
-172 27 -255 24 -239 40 -275 123 -282 107 -9 128 35 106 224 -7 70 -19 178
-24 238 -30 325 -33 336 -81 361 -44 22 -103 18 -136 -10z"/>
<path d="M7244 8573 c-3 -15 -19 -82 -35 -147 -17 -67 -26 -123 -21 -128 5 -5
40 -8 78 -6 l69 3 -2 30 c-2 28 -37 191 -52 244 -10 35 -29 37 -37 4z"/>
<path d="M4781 6989 c-236 -61 -363 -219 -307 -383 23 -69 52 -105 100 -127
62 -28 96 -24 183 23 99 53 154 55 217 11 39 -27 41 -32 44 -84 3 -51 1 -57
-35 -95 -21 -21 -58 -55 -83 -74 -167 -130 -220 -213 -220 -348 0 -69 3 -84
26 -118 15 -21 33 -44 42 -50 13 -9 12 -14 -9 -32 -12 -12 -25 -22 -29 -22 -3
0 -23 -22 -43 -49 -33 -43 -39 -59 -44 -118 -3 -39 0 -86 6 -111 44 -162 288
-219 419 -99 27 25 46 64 62 126 20 77 -25 204 -89 252 l-29 21 38 38 c24 24
44 57 55 94 14 44 28 65 60 92 23 19 45 34 49 34 22 0 173 110 216 157 74 80
90 117 115 251 11 62 12 88 0 164 -18 124 -59 203 -150 293 -151 149 -382 209
-594 154z m325 -68 c136 -48 247 -142 304 -256 31 -63 34 -80 38 -172 4 -92 2
-106 -21 -155 -13 -29 -32 -62 -41 -73 -16 -19 -17 -18 -12 25 18 149 18 198
1 251 -46 138 -136 237 -273 302 -86 41 -88 41 -203 42 -107 0 -119 -2 -170
-28 -93 -48 -118 -79 -122 -159 -4 -57 -18 -70 -47 -43 -85 77 53 239 240 282
77 18 232 9 306 -16z m-346 -161 c0 -12 -9 -22 -24 -26 -62 -15 -85 20 -26 40
41 14 50 12 50 -14z m291 -478 c-11 -15 -43 -50 -72 -78 -143 -133 -190 -199
-193 -266 -1 -35 -24 -36 -32 -2 -9 36 9 91 50 148 33 47 66 77 176 161 29 22
58 45 64 52 22 24 27 13 7 -15z m-124 -627 c41 -17 61 -40 82 -93 20 -49 6
-51 -37 -5 -46 51 -70 63 -120 63 -47 0 -97 -40 -107 -86 -11 -47 -14 -54 -24
-54 -13 0 -25 63 -17 93 19 76 134 118 223 82z"/>
<path d="M5834 5881 c-107 -36 -218 -131 -263 -225 -92 -189 -58 -411 82 -549
78 -76 123 -99 189 -95 67 4 88 31 95 119 l5 64 -47 55 c-67 79 -78 105 -78
180 0 74 17 114 63 154 39 32 68 40 127 33 87 -10 143 -76 143 -169 0 -73 -13
-99 -85 -168 -76 -74 -88 -99 -80 -163 6 -40 15 -59 42 -86 32 -32 36 -33 87
-28 71 7 124 36 194 105 141 140 175 349 86 531 -56 113 -150 199 -265 241
-70 26 -221 27 -295 1z"/>
<path d="M7475 6956 c-43 -26 -65 -51 -186 -212 -91 -121 -174 -245 -220 -331
-38 -71 -39 -71 -88 22 -60 111 -130 162 -183 134 -56 -30 -54 -58 12 -145 47
-62 96 -160 140 -277 36 -96 53 -112 109 -101 45 9 69 42 119 166 81 198 231
429 372 571 80 81 89 100 69 140 -30 59 -81 71 -144 33z"/>
<path d="M8333 5723 c-24 -3 -33 -9 -33 -23 0 -31 15 -32 90 -6 91 30 65 44
-57 29z"/>
<path d="M8388 5651 c-56 -8 -104 -41 -100 -67 18 -120 20 -128 46 -151 31
-27 47 -28 85 -9 30 16 51 53 51 92 0 37 16 61 45 68 32 8 32 25 -2 53 -27 24
-43 25 -125 14z"/>
<path d="M8255 5276 c-33 -7 -98 -19 -145 -26 -47 -7 -91 -14 -97 -16 -30 -8
-6 -91 41 -142 34 -38 71 -52 135 -52 47 0 69 6 103 26 89 54 137 148 103 200
-18 28 -46 30 -140 10z"/>
<path d="M3379 5763 c-30 -20 -72 -46 -93 -58 -42 -22 -58 -45 -32 -45 22 0
173 98 180 117 11 27 1 25 -55 -14z"/>
<path d="M3967 5704 c-8 -8 1 -24 14 -24 5 0 9 7 9 15 0 15 -12 20 -23 9z"/>
<path d="M3875 5670 c-3 -5 1 -10 9 -10 9 0 16 5 16 10 0 6 -4 10 -9 10 -6 0
-13 -4 -16 -10z"/>
<path d="M3221 5595 c-18 -8 -42 -15 -52 -15 -20 0 -37 -25 -25 -37 3 -3 23
-9 43 -12 38 -6 38 -6 44 -64 4 -40 12 -62 25 -72 89 -67 153 -48 175 52 7 30
19 57 26 60 24 9 13 42 -24 70 -30 23 -47 28 -107 31 -47 1 -82 -3 -105 -13z
m113 -94 c3 -4 0 -16 -7 -25 -12 -16 -14 -16 -26 -2 -7 8 -10 20 -6 26 8 12
32 13 39 1z"/>
<path d="M3421 5212 c-35 -24 8 -138 68 -177 64 -41 104 -49 164 -31 30 9 64
27 80 44 28 29 62 121 49 134 -19 19 -338 45 -361 30z"/>
<path d="M8180 3404 c0 -11 23 -50 41 -66 27 -26 34 -22 14 8 -18 28 -55 67
-55 58z"/>
<path d="M7127 3710 c-39 -31 -74 -120 -47 -120 6 0 10 4 10 10 0 5 16 32 36
60 41 57 42 82 1 50z"/>
<path d="M5780 2856 c-261 -59 -376 -246 -216 -350 50 -32 102 -34 153 -4 21
12 57 32 80 45 77 44 188 43 237 -2 21 -19 26 -33 26 -69 0 -62 -33 -97 -134
-146 -98 -46 -148 -97 -170 -169 -11 -38 -12 -59 -4 -87 18 -68 59 -94 148
-94 77 0 112 19 136 74 17 36 31 47 106 86 103 53 159 104 196 179 23 49 26
66 25 158 0 90 -4 109 -27 155 -56 114 -150 187 -287 223 -65 18 -193 18 -269
1z m148 -82 c-9 -9 -21 -13 -27 -10 -20 13 -11 26 16 26 25 0 26 -1 11 -16z
m-68 -14 c0 -5 -7 -10 -16 -10 -8 0 -12 5 -9 10 3 6 10 10 16 10 5 0 9 -4 9
-10z m190 -10 c-28 -7 -72 -1 -66 9 3 4 24 5 48 2 36 -4 39 -5 18 -11z m-234
3 c-4 -4 -27 -15 -51 -24 -38 -14 -46 -15 -56 -3 -9 11 -6 14 20 14 17 0 31 5
31 10 0 6 14 10 32 10 17 0 28 -3 24 -7z m144 -17 c0 -9 -7 -12 -20 -9 -31 8
-34 23 -6 23 16 0 26 -6 26 -14z m158 -3 c-10 -2 -26 -2 -35 0 -10 3 -2 5 17
5 19 0 27 -2 18 -5z m57 -23 c3 -5 1 -10 -4 -10 -6 0 -11 5 -11 10 0 6 2 10 4
10 3 0 8 -4 11 -10z m-542 -24 c-24 -20 -25 -26 -14 -40 11 -14 11 -16 -2 -16
-25 0 -31 -21 -8 -27 12 -3 21 -9 21 -14 0 -15 -21 -21 -35 -9 -17 14 -20 56
-5 65 6 3 10 13 10 21 0 21 22 43 43 44 15 0 13 -5 -10 -24z m492 4 c3 -5 -1
-10 -10 -10 -9 0 -13 5 -10 10 3 6 8 10 10 10 2 0 7 -4 10 -10z m-228 -6 c-3
-3 -12 -4 -19 -1 -8 3 -5 6 6 6 11 1 17 -2 13 -5z m136 -21 c-7 -2 -19 -2 -25
0 -7 3 -2 5 12 5 14 0 19 -2 13 -5z m-283 -43 c0 -5 -9 -10 -20 -10 -11 0 -20
5 -20 10 0 6 9 10 20 10 11 0 20 -4 20 -10z m347 -6 c-3 -3 -12 -4 -19 -1 -8
3 -5 6 6 6 11 1 17 -2 13 -5z m173 -44 c0 -16 -4 -30 -10 -30 -5 0 -10 14 -10
30 0 17 5 30 10 30 6 0 10 -13 10 -30z m-118 -54 c-9 -18 -11 -16 -11 19 0 33
1 37 10 21 8 -12 8 -25 1 -40z m54 -4 c-22 -5 -30 3 -21 18 5 8 11 7 22 -2 15
-12 14 -13 -1 -16z m61 -44 c-3 -7 -5 -2 -5 12 0 14 2 19 5 13 2 -7 2 -19 0
-25z m-76 -21 c-8 -8 -11 -7 -11 4 0 20 13 34 18 19 3 -7 -1 -17 -7 -23z m-31
-26 c0 -6 -4 -13 -10 -16 -5 -3 -10 1 -10 9 0 9 5 16 10 16 6 0 10 -4 10 -9z
m107 -48 c-3 -10 -5 -4 -5 12 0 17 2 24 5 18 2 -7 2 -21 0 -30z m-67 17 c0 -5
-2 -10 -4 -10 -3 0 -8 5 -11 10 -3 6 -1 10 4 10 6 0 11 -4 11 -10z m-30 -26
c0 -2 -7 -4 -15 -4 -8 0 -15 4 -15 10 0 5 7 7 15 4 8 -4 15 -8 15 -10z m-40
-29 c0 -8 -7 -15 -15 -15 -16 0 -20 12 -8 23 11 12 23 8 23 -8z m-120 -75 c0
-5 -8 -10 -17 -10 -12 0 -14 -3 -6 -11 8 -8 18 -6 37 6 29 19 35 12 10 -12
-18 -19 -3 -33 27 -26 29 8 23 -10 -8 -24 -36 -17 -42 -16 -36 6 7 27 -10 33
-58 19 -28 -9 -48 -23 -58 -40 -21 -36 -51 -37 -51 -2 0 19 8 28 34 39 18 8
36 21 39 30 4 8 16 15 27 15 11 0 20 5 20 10 0 6 9 10 20 10 11 0 20 -4 20
-10z m-30 -108 c0 -14 -11 -21 -26 -15 -21 8 -17 23 6 23 11 0 20 -4 20 -8z
m-50 -28 c0 -8 -5 -12 -10 -9 -6 4 -8 11 -5 16 9 14 15 11 15 -7z m-90 -4 c0
-5 -4 -10 -10 -10 -5 0 -10 5 -10 10 0 6 5 10 10 10 6 0 10 -4 10 -10z m50
-20 c13 -8 13 -10 -2 -10 -9 0 -21 -7 -26 -16 -7 -12 -11 -13 -16 -5 -4 7 -2
18 4 26 14 17 20 18 40 5z m60 -9 c0 -10 -7 -22 -16 -25 -25 -10 -28 0 -7 22
23 26 23 26 23 3z"/>
<path d="M5814 1895 c-119 -61 -151 -206 -67 -304 61 -72 151 -91 238 -50 133
62 153 229 40 328 -63 55 -136 64 -211 26z m155 -92 c25 -30 22 -39 -8 -24
-12 6 -30 16 -41 21 -30 15 -47 12 -67 -13 -10 -13 -26 -26 -35 -30 -25 -9
-23 19 2 33 11 6 20 17 20 25 0 11 13 15 54 15 47 0 57 -4 75 -27z m-85 -68
c4 -11 -2 -15 -22 -15 -26 1 -26 1 -8 15 24 18 23 18 30 0z m-85 -18 c12 -15
5 -27 -16 -27 -7 0 -13 9 -13 20 0 23 13 26 29 7z m51 -37 c13 -8 12 -10 -3
-10 -10 0 -20 -7 -23 -15 -7 -17 -24 -20 -24 -5 0 11 21 39 30 39 3 1 12 -4
20 -9z m90 -24 c0 -11 -19 -15 -25 -6 -3 5 1 10 9 10 9 0 16 -2 16 -4z m10
-52 c0 -2 -17 -4 -37 -3 -33 1 -35 2 -13 8 23 7 50 4 50 -5z"/>
<path d="M8595 2541 c-7 -12 12 -24 25 -16 11 7 4 25 -10 25 -5 0 -11 -4 -15
-9z"/>
<path d="M8790 2536 c0 -22 17 -28 24 -10 9 22 8 24 -9 24 -8 0 -15 -6 -15
-14z"/>
<path d="M8496 2518 c-9 -36 -8 -38 29 -38 39 0 42 6 19 38 -20 28 -40 28 -48
0z"/>
</g>
</svg>
